<?xml version="1.0" standalone="no"?>
<!DOCTYPE svg PUBLIC "-//W3C//DTD SVG 20010904//EN"
 "http://www.w3.org/TR/2001/REC-SVG-20010904/DTD/svg10.dtd">
<svg version="1.0" xmlns="http://www.w3.org/2000/svg"
 width="869.000000pt" height="798.000000pt" viewBox="0 0 869.000000 798.000000"
 preserveAspectRatio="xMidYMid meet">

<g transform="translate(0.000000,798.000000) scale(0.100000,-0.100000)"
fill="#000000" stroke="none">
<path d="M0 3990 l0 -3990 4345 0 4345 0 0 3990 0 3990 -4345 0 -4345 0 0
-3990z m4090 3115 c0 -23 -34 -65 -52 -65 -23 0 6 77 31 83 9 3 17 5 19 6 1 0
2 -10 2 -24z m-2016 -57 c23 -32 20 -57 -9 -70 -28 -13 -55 2 -55 31 0 19 27
61 40 61 5 0 16 -10 24 -22z m4461 -130 c-5 -46 -12 -67 -27 -79 -20 -15 -20
-17 -3 -42 15 -24 15 -27 2 -27 -9 0 -24 11 -35 25 -16 20 -28 25 -54 23 -26
-2 -33 1 -32 15 1 9 -2 17 -7 17 -5 0 -9 10 -9 23 0 13 -5 28 -12 35 -9 9 -9
15 0 24 10 10 17 10 34 -1 20 -12 24 -11 43 13 28 35 37 33 33 -11 -2 -22 2
-38 10 -40 7 -3 12 4 12 16 0 30 21 71 38 71 11 0 13 -12 7 -62z m-3146 -314
c22 -16 25 -16 52 0 27 16 30 16 36 0 3 -9 1 -24 -5 -33 -23 -31 -25 -44 -9
-56 27 -20 20 -35 -17 -35 -23 0 -38 -7 -49 -22 l-16 -23 0 27 c-1 38 -16 43
-39 13 -11 -14 -25 -25 -31 -25 -19 0 -12 25 18 66 23 30 27 43 19 57 -10 19
-5 47 9 47 5 0 19 -7 32 -16z m4267 -79 c3 -14 4 -37 1 -51 -3 -19 1 -27 17
-34 34 -12 52 -38 37 -53 -9 -9 -16 -9 -31 1 -18 11 -20 10 -20 -19 0 -19 7
-37 18 -45 16 -12 15 -13 -6 -14 -13 0 -34 14 -51 33 -27 30 -32 31 -60 21
-16 -7 -32 -9 -35 -6 -12 12 -5 28 16 37 26 12 36 35 15 35 -19 0 -51 36 -42
49 8 14 48 14 62 0 14 -14 33 -3 33 17 0 21 19 54 30 54 5 0 12 -11 16 -25z
m-6632 -331 c-7 -25 14 -54 39 -54 21 0 37 -23 27 -39 -7 -12 -13 -12 -39 -1
-37 15 -61 1 -61 -35 0 -30 -26 -53 -42 -37 -7 7 -20 12 -30 12 -22 0 -22 9
-3 34 20 26 19 33 -6 41 -14 5 -19 14 -17 28 3 19 8 22 46 19 40 -4 42 -3 42
25 0 16 5 34 12 41 18 18 39 -5 32 -34z m4176 -213 c0 -5 -7 -25 -15 -44 -29
-70 -12 -88 38 -41 20 19 32 23 39 16 8 -8 -1 -21 -27 -47 l-39 -36 23 -15
c28 -20 14 -41 -17 -25 -31 17 -51 13 -84 -14 -39 -33 -68 -33 -68 -1 0 13 7
26 15 30 18 7 20 40 2 58 -18 19 -38 68 -32 79 12 18 35 8 50 -21 22 -43 41
-37 67 20 13 27 29 50 36 50 6 0 12 -4 12 -9z m-4620 -52 c0 -5 14 -9 30 -9
21 0 30 -5 30 -16 0 -9 11 -27 25 -40 14 -13 25 -28 25 -34 0 -13 -27 -13 -35
0 -3 6 -17 10 -31 10 -17 0 -24 -6 -24 -18 0 -10 -3 -21 -6 -25 -10 -9 -34 4
-34 18 0 22 -20 28 -45 15 -25 -13 -55 -8 -55 10 0 5 20 19 44 31 30 14 43 25
39 35 -8 22 4 44 22 38 8 -3 15 -10 15 -15z m5813 -9 c27 0 44 -9 71 -35 20
-19 36 -36 37 -37 0 -2 2 -63 5 -136 5 -129 4 -135 -20 -177 -15 -24 -26 -50
-26 -59 0 -8 -25 -62 -55 -120 -30 -57 -55 -110 -55 -116 0 -7 -7 -28 -16 -48
-9 -21 -20 -46 -24 -57 -30 -78 -89 -187 -121 -227 -22 -26 -39 -49 -39 -53 0
-8 -100 -141 -140 -185 -35 -39 -35 -49 -5 -185 40 -179 63 -373 63 -515 0
-63 5 -144 12 -180 20 -121 19 -174 -5 -385 -11 -91 -61 -247 -95 -295 -10
-14 -36 -59 -58 -100 -107 -201 -122 -222 -253 -350 -187 -182 -279 -265 -319
-285 -19 -10 -42 -26 -50 -35 -24 -27 -258 -142 -355 -175 -125 -42 -290 -51
-475 -25 -83 12 -134 16 -320 29 -151 11 -203 22 -297 67 -39 19 -78 34 -86
34 -21 0 -100 36 -130 60 -16 13 -27 31 -27 46 0 13 -6 24 -13 24 -15 0 -81
-43 -117 -76 -23 -20 -223 -124 -240 -124 -4 0 -56 -22 -114 -50 -58 -27 -113
-50 -120 -50 -8 0 -31 -9 -53 -19 -83 -42 -153 -56 -283 -56 l-126 0 -54 40
c-68 49 -77 60 -91 109 -11 39 0 141 21 191 4 11 14 40 21 64 7 24 26 61 41
82 15 21 28 42 28 46 0 5 23 37 50 72 28 36 50 68 50 73 0 5 72 81 161 169
l161 159 -40 73 c-21 39 -51 113 -67 162 -15 50 -43 137 -61 195 -33 102 -45
161 -64 304 -5 38 -11 74 -13 80 -4 10 5 134 17 241 3 22 12 67 21 100 9 33
20 107 26 164 5 56 16 118 23 136 8 17 17 55 21 84 4 34 19 71 41 104 19 29
39 61 46 71 7 11 29 38 48 60 20 23 56 73 80 111 52 81 58 89 140 175 34 36
68 79 75 95 18 41 89 115 150 155 46 31 123 88 135 100 16 16 164 90 180 90 5
0 28 10 52 23 80 43 222 77 321 77 39 1 92 5 116 9 24 5 57 5 75 1 17 -5 72
-11 121 -14 50 -3 99 -7 110 -11 11 -3 61 -9 110 -15 120 -12 202 -28 245 -48
19 -9 42 -15 51 -14 8 2 29 -4 45 -13 16 -8 35 -15 42 -15 8 0 26 -6 40 -14
15 -8 59 -27 97 -42 39 -14 75 -30 80 -34 6 -4 35 -15 65 -26 30 -10 82 -35
115 -56 53 -32 62 -35 80 -24 103 67 321 145 427 153 117 10 188 -44 188 -142
0 -36 -34 -149 -56 -182 -8 -12 -14 -29 -14 -38 0 -8 -4 -15 -10 -15 -5 0 -10
-6 -10 -12 0 -18 -111 -182 -159 -237 -12 -13 -21 -27 -21 -32 0 -4 -19 -27
-42 -51 -24 -24 -67 -74 -97 -112 -29 -37 -94 -106 -144 -154 -49 -48 -181
-177 -291 -287 -192 -190 -362 -354 -457 -439 -72 -64 -184 -169 -374 -352
-99 -95 -196 -186 -216 -201 -32 -24 -72 -58 -212 -180 -15 -13 -69 -54 -120
-91 -51 -36 -94 -69 -97 -72 -3 -3 -36 -30 -75 -60 -91 -70 -81 -62 -151 -120
-34 -27 -67 -50 -73 -50 -6 0 -11 -4 -11 -8 0 -11 -51 -36 -67 -33 -7 1 -13
-2 -13 -7 0 -10 -144 -102 -159 -102 -5 0 -11 -4 -13 -8 -5 -12 -127 -62 -151
-62 -13 0 -32 -6 -43 -14 -11 -8 -39 -19 -63 -26 -41 -11 -45 -10 -72 16 -36
35 -36 49 1 129 17 35 30 69 30 76 0 6 14 27 31 47 17 20 38 49 46 66 7 17 27
53 44 80 l30 49 -27 51 c-39 74 -43 77 -66 65 -39 -21 -211 -196 -270 -274
-34 -44 -75 -98 -93 -120 -18 -22 -42 -56 -53 -76 -26 -46 -72 -216 -71 -260
1 -52 29 -91 84 -119 43 -21 63 -25 145 -25 103 0 200 18 240 45 14 9 45 22
70 30 25 7 79 30 120 51 41 20 98 45 125 54 28 9 58 21 68 26 89 47 142 78
205 120 40 26 83 51 95 55 12 4 50 26 83 50 34 24 65 44 69 44 9 0 169 81 175
89 22 28 222 161 281 187 14 6 41 25 60 41 19 16 76 60 128 96 52 37 120 92
152 122 32 30 71 62 86 72 15 10 48 37 73 61 25 24 72 64 104 90 90 72 296
263 296 274 0 6 26 40 58 75 31 36 83 97 115 136 32 39 70 85 85 102 15 17 36
46 46 65 11 19 22 37 26 40 4 3 22 26 41 51 74 99 124 165 139 181 8 9 24 34
35 55 27 52 110 169 154 216 20 21 44 49 53 60 9 12 48 63 87 112 39 50 78 99
88 110 26 29 103 144 103 153 0 5 8 17 19 28 10 11 33 51 50 90 46 98 81 176
91 199 4 11 19 45 33 75 14 30 41 89 60 130 41 88 54 157 52 261 -2 87 -21
128 -66 148 -17 7 -42 11 -57 7 -15 -3 -43 -8 -62 -12 -19 -4 -39 -10 -45 -14
-5 -4 -35 -10 -65 -14 -30 -4 -59 -11 -65 -15 -5 -4 -37 -16 -70 -25 -33 -10
-71 -21 -85 -26 -14 -4 -52 -16 -85 -25 -63 -17 -148 -47 -201 -70 -36 -15
-162 -95 -184 -116 -8 -8 -41 -33 -72 -57 -32 -23 -58 -47 -58 -52 0 -17 -47
-11 -54 6 -17 45 319 283 402 284 12 0 22 4 22 8 0 10 62 33 115 43 22 4 74
19 115 32 183 61 378 107 402 95 9 -4 32 -8 51 -8z m670 -462 c15 -11 16 -17
5 -46 -15 -39 -43 -50 -69 -26 -20 18 -26 44 -9 44 6 0 10 9 10 20 0 23 36 28
63 8z m-143 -283 c11 -28 19 -35 42 -35 15 0 28 -5 28 -10 0 -14 -46 -31 -64
-24 -8 3 -17 1 -21 -5 -11 -19 -38 -12 -67 16 -39 38 -36 71 6 64 5 -1 15 7
23 18 18 27 36 18 53 -24z m-5091 -79 c7 -8 10 -29 7 -46 -4 -26 1 -37 21 -56
22 -20 24 -26 13 -39 -11 -13 -11 -20 0 -40 19 -35 5 -42 -30 -17 -21 16 -37
21 -55 16 -18 -4 -32 -1 -45 11 -29 27 -24 57 13 80 27 17 33 27 35 63 3 44
19 55 41 28z m5439 -98 c18 -18 14 -38 -8 -38 -20 0 -44 32 -33 44 10 10 28 7
41 -6z m-4992 -139 c-21 -53 -20 -63 8 -79 14 -7 28 -20 31 -28 4 -12 -3 -14
-44 -8 -37 5 -53 3 -64 -9 -24 -24 -50 -19 -45 8 2 13 -1 29 -9 35 -16 15 -17
48 -2 58 6 3 16 1 22 -5 20 -20 29 -11 24 24 -4 25 -1 35 9 35 8 0 14 -4 14
-10 0 -5 9 -10 20 -10 13 0 20 7 20 19 0 20 22 35 28 19 2 -5 -3 -27 -12 -49z
m5976 -841 c34 -16 40 -31 28 -63 -9 -25 -50 -36 -50 -14 0 5 -5 7 -10 4 -6
-3 -13 2 -16 12 -3 10 -10 26 -15 36 -11 21 7 51 25 43 6 -2 23 -10 38 -18z
m-7213 -805 c8 -16 17 -35 21 -43 12 -25 0 -39 -37 -46 -55 -10 -71 33 -32 87
25 36 32 36 48 2z m5339 -476 c3 -25 7 -28 34 -25 54 5 43 -19 -11 -27 -37 -5
-52 -12 -56 -26 -9 -28 -23 -24 -65 19 -45 45 -41 69 9 59 24 -5 33 -2 41 14
16 28 44 20 48 -14z m-5206 -165 c-1 -22 2 -43 8 -47 18 -11 11 -35 -12 -35
-12 0 -29 -6 -37 -14 -21 -18 -121 -10 -121 10 0 8 7 14 15 14 20 0 38 37 32
67 -5 28 17 43 36 24 18 -18 45 -13 52 10 11 35 30 15 27 -29z m6591 -137 c37
-33 31 -55 -19 -70 -40 -12 -42 -11 -74 21 -27 28 -30 36 -20 49 8 9 21 13 36
9 15 -4 24 -2 24 5 0 18 23 12 53 -14z m-5991 -50 c10 -22 9 -29 -10 -48 -18
-17 -26 -20 -40 -10 -29 18 -10 83 24 83 8 0 20 -11 26 -25z m3982 -9 c34 -31
36 -81 4 -90 -31 -8 -51 -7 -66 3 -11 7 -11 17 4 60 10 28 22 51 26 51 4 0 18
-11 32 -24z m2261 -68 c8 -27 16 -34 43 -36 31 -3 48 -32 19 -32 -7 0 -21 -6
-31 -13 -17 -12 -17 -14 1 -44 14 -25 15 -35 6 -44 -9 -9 -19 -6 -42 10 -17
13 -31 27 -31 32 0 15 -15 11 -40 -11 -12 -11 -26 -18 -29 -15 -4 2 -7 30 -6
62 1 55 2 58 25 57 27 -1 49 21 50 49 0 29 25 19 35 -15z m-4431 -244 c9 -3
16 -12 16 -20 0 -10 12 -14 39 -14 48 0 64 -26 26 -40 -30 -11 -30 -11 -5 -40
31 -36 9 -46 -40 -18 -31 17 -44 20 -47 11 -7 -19 -23 -16 -47 10 -11 12 -34
32 -51 43 -25 19 -27 24 -16 38 10 11 27 16 54 14 25 -1 42 3 45 10 4 14 5 14
26 6z m4042 -430 c-5 -13 -10 -14 -18 -6 -6 6 -8 18 -4 28 5 13 10 14 18 6 6
-6 8 -18 4 -28z m-4586 -3 c18 -35 12 -58 -17 -64 -30 -6 -43 6 -43 39 0 41
41 59 60 25z m4581 -70 c-3 -48 21 -62 45 -26 18 28 44 33 44 10 0 -22 -41
-75 -57 -75 -22 0 -15 -19 19 -49 38 -34 31 -62 -9 -31 -32 25 -41 25 -73 0
-30 -23 -50 -26 -50 -5 0 7 6 18 13 22 6 4 18 16 26 26 17 22 -1 47 -34 47
-12 0 -24 3 -28 6 -12 12 6 34 27 34 30 0 46 18 46 51 0 15 6 29 13 32 18 7
21 0 18 -42z m-2631 -119 c0 -9 -71 -95 -82 -100 -24 -11 12 -51 45 -52 10 0
17 -6 14 -12 -2 -9 -28 -13 -83 -13 -48 0 -88 -5 -103 -13 -18 -11 -26 -11
-35 -2 -8 9 -8 14 2 17 21 8 13 23 -13 23 -36 0 -31 16 15 45 29 18 40 32 40
50 0 30 20 33 38 5 9 -16 19 -19 40 -14 36 9 82 42 82 60 0 8 9 14 20 14 11 0
20 -4 20 -8z m-4052 -408 c19 -6 14 -52 -7 -64 -45 -23 -81 -2 -81 49 0 29 28
34 88 15z m4427 -274 c3 -5 -1 -20 -9 -32 -26 -36 -20 -75 12 -90 15 -7 27
-20 27 -28 0 -15 -18 -17 -66 -5 -19 5 -33 0 -56 -19 -17 -14 -36 -26 -42 -26
-14 0 -15 37 -1 45 21 13 8 23 -40 29 -67 9 -69 34 -2 38 44 3 47 5 50 33 5
44 17 50 40 21 25 -32 32 -33 32 -3 0 37 39 63 55 37z"/>
<path d="M4187 5593 c-4 -3 -50 -10 -103 -14 -147 -12 -256 -38 -325 -77 -19
-10 -59 -27 -89 -37 -30 -11 -98 -49 -150 -85 -52 -37 -111 -76 -131 -88 -46
-28 -79 -59 -104 -98 -16 -26 -120 -146 -171 -198 -6 -7 -15 -22 -18 -34 -4
-12 -11 -22 -16 -22 -5 0 -12 -9 -15 -20 -4 -11 -32 -53 -63 -93 -59 -74 -134
-195 -146 -234 -4 -13 -12 -23 -17 -23 -5 0 -9 -15 -9 -32 0 -18 -7 -46 -15
-62 -8 -15 -15 -50 -15 -76 0 -27 -6 -79 -14 -117 -8 -37 -17 -101 -21 -142
-3 -40 -10 -84 -15 -96 -15 -40 -13 -187 5 -275 9 -47 20 -119 24 -160 5 -41
17 -95 29 -120 11 -25 32 -85 47 -135 45 -155 112 -305 136 -305 5 0 9 -9 9
-19 0 -11 11 -32 24 -48 13 -15 27 -39 31 -52 14 -44 103 -167 149 -205 25
-20 64 -43 87 -51 23 -9 48 -20 54 -25 9 -7 16 -6 24 4 7 8 31 24 54 35 23 12
62 39 87 62 60 54 194 159 234 184 18 11 73 54 122 96 49 41 97 80 106 85 28
15 203 172 317 284 112 110 146 140 159 140 4 0 15 13 25 29 9 16 40 49 69 73
28 24 61 54 72 67 12 12 56 52 99 87 42 36 213 200 380 365 166 165 338 335
382 377 44 42 96 97 115 122 32 40 55 67 143 165 15 17 30 38 33 48 3 9 10 17
15 17 18 0 9 23 -23 60 -18 21 -44 54 -58 74 -14 19 -29 36 -34 36 -4 0 -23
15 -41 33 -18 18 -51 41 -74 52 -22 11 -41 23 -41 28 0 4 -5 7 -11 7 -6 0 -25
11 -43 25 -18 14 -43 25 -54 25 -12 0 -22 5 -22 11 0 14 -18 30 -60 53 -19 10
-44 27 -55 36 -28 24 -73 47 -125 64 -25 8 -58 20 -75 26 -16 7 -39 16 -50 20
-11 5 -49 20 -85 34 -84 33 -198 59 -340 76 -41 5 -100 13 -130 19 -30 5 -95
10 -143 10 -49 1 -96 5 -106 11 -10 5 -21 7 -24 3z"/>
<path d="M5805 5403 c-11 -2 -29 -8 -40 -12 -11 -5 -45 -16 -75 -26 -67 -21
-200 -84 -200 -95 0 -5 29 -24 63 -44 35 -19 70 -42 77 -51 7 -8 18 -15 24
-15 19 0 120 -101 151 -150 25 -40 29 -43 39 -26 6 10 21 31 33 46 31 38 82
150 104 232 16 59 18 75 8 103 -7 19 -21 36 -33 39 -24 6 -121 6 -151 -1z"/>
<path d="M5859 4475 c-24 -31 -61 -76 -81 -99 -20 -22 -40 -52 -43 -66 -4 -14
-10 -27 -13 -30 -4 -3 -27 -32 -52 -65 -25 -33 -52 -67 -61 -75 -8 -8 -24 -31
-35 -50 -10 -19 -34 -51 -52 -70 -19 -19 -40 -50 -48 -68 -8 -18 -21 -40 -29
-50 -71 -87 -89 -107 -110 -124 -14 -11 -25 -25 -25 -31 0 -7 -29 -44 -65 -82
-37 -39 -71 -82 -76 -97 -6 -15 -25 -38 -44 -52 -18 -14 -60 -52 -93 -86 -33
-33 -65 -60 -70 -60 -6 0 -12 -3 -14 -8 -1 -4 -28 -28 -58 -52 -57 -47 -85
-72 -160 -139 -25 -22 -48 -41 -52 -41 -4 0 -30 -23 -58 -50 -28 -28 -81 -69
-118 -92 -37 -23 -101 -74 -142 -113 -56 -54 -88 -76 -127 -89 -63 -21 -163
-84 -212 -134 -37 -38 -150 -112 -170 -112 -6 0 -19 -4 -29 -10 -9 -5 -33 -16
-53 -25 -19 -9 -53 -33 -74 -55 l-39 -40 20 -27 c19 -26 81 -53 189 -83 17 -5
71 -23 120 -40 72 -26 105 -32 165 -31 41 0 136 -6 210 -14 434 -47 480 -41
788 101 41 19 77 34 81 34 4 0 27 17 50 37 24 20 60 48 81 62 21 14 75 67 121
117 46 50 127 132 180 183 53 50 102 103 109 118 8 16 24 42 36 59 22 30 81
137 136 247 16 32 34 83 40 115 5 31 14 77 20 102 19 90 25 186 16 240 -5 30
-13 89 -18 130 -5 41 -13 107 -19 145 -5 39 -10 144 -10 235 -1 136 -5 176
-22 235 -11 38 -26 90 -33 114 l-13 44 -44 -58z m-2119 -2075 c0 -12 -28 -25
-36 -17 -9 9 6 27 22 27 8 0 14 -5 14 -10z"/>
<path d="M3047 2741 c-15 -22 -27 -44 -27 -47 0 -4 -17 -30 -38 -58 -22 -28
-45 -69 -52 -91 -7 -22 -16 -44 -21 -50 -12 -12 -11 -52 1 -60 5 -3 24 1 42 9
18 8 66 26 107 40 41 15 85 33 97 41 13 8 28 15 34 15 14 0 88 53 94 68 3 7
-2 12 -12 12 -30 0 -105 53 -153 109 l-46 52 -26 -40z"/>
</g>
</svg>
